Coordinates
version=1
nRows=19
nColumns=24
inDegrees=yes

Units are S.I. units (second, meters, Newtons, ...)
Angles are in degrees.

endheader
time	pelvis_tilt	pelvis_list	pelvis_rotation	pelvis_tx	pelvis_ty	pelvis_tz	hip_flexion_r	hip_adduction_r	hip_rotation_r	knee_angle_r	ankle_angle_r	subtalar_angle_r	mtp_angle_r	hip_flexion_l	hip_adduction_l	hip_rotation_l	knee_angle_l	ankle_angle_l	subtalar_angle_l	mtp_angle_l	lumbar_extension	lumbar_bending	lumbar_rotation
      3.57000000	    -11.85404954	      0.85889355	     -4.17278906	     -1.68277066	     -0.02518454	     -0.31094331	     -2.25114658	      2.96782386	      8.10320370	    -15.55976522	      7.76291036	      6.36151483	     20.42726174	     33.41873693	     -0.38079975	      1.10057328	     -6.84722755	     -1.58936493	      3.10956115	      8.34177374	      8.73244762	     -1.09097417	     12.06312422
      3.57500000	    -11.92627690	      0.98290250	     -4.13213420	     -1.67639860	     -0.02588043	     -0.31158650	     -2.33752891	      2.72380721	      7.81492482	    -16.00394979	      7.62824981	      7.01420669	     20.63013221	     33.46967872	     -0.14134360	      1.35089922	     -7.46798273	     -1.93676312	      2.91502853	      8.43265909	      8.97799017	     -1.21355717	     12.02655294
      3.58000000	    -11.97153861	      1.10971553	     -4.07535958	     -1.67011498	     -0.02649753	     -0.31230368	     -2.41806038	      2.46633719	      7.48030870	    -16.49170754	      7.44348758	      7.70148728	     20.92351426	     33.49814762	      0.12189678	      1.68805651	     -8.08103141	     -2.40887744	      2.53540082	      8.55862962	      9.17105682	     -1.34240698	     11.96153763
      3.58500000	    -12.03562436	      1.29387167	     -3.99044734	     -1.66376714	     -0.02703728	     -0.31303250	     -2.46647824	      2.14559872	      7.12845008	    -16.99322553	      7.19166068	      8.38743696	     21.24919231	     33.53984876	      0.45330617	      1.99976628	     -8.66867796	     -2.95017462	      2.15790929	      8.66745905	      9.40030715	     -1.53999455	     11.87885685
      3.59000000	    -12.10868767	      1.52057243	     -3.88083810	     -1.65741863	     -0.02749074	     -0.31380549	     -2.48115868	      1.77206686	      6.73216219	    -17.52391277	      6.89235428	      9.10638569	     21.61270331	     33.59458168	      0.84199769	      2.33065176	     -9.24957112	     -3.53323864	      1.76218137	      8.75049971	      9.64262906	     -1.79189450	     11.77298788
      3.59500000	    -12.18816164	      1.79059045	     -3.74125247	     -1.65107706	     -0.02784953	     -0.31461142	     -2.46233485	      1.34711514	      6.29736680	    -18.09025068	      6.53556365	      9.85422465	     22.00512188	     33.66305230	      1.29210326	      2.67900699	     -9.83458793	     -4.13414210	      1.36189985	      8.79335660	      9.89112466	     -2.09762198	     11.64847814
      3.60000000	    -12.25814463	      2.07149225	     -3.56821544	     -1.64478612	     -0.02809791	     -0.31551560	     -2.42379050	      0.89425138	      5.75809907	    -18.68598973	      6.09224393	     10.66234476	     22.49390770	     33.74229447	      1.78745625	      3.06225435	    -10.45337585	     -4.76500319	      0.87199795	      8.78505283	     10.11678620	     -2.41261313	     11.52049083
      3.60500000	    -12.33262632	      2.40082160	     -3.37968777	     -1.63848729	     -0.02824455	     -0.31638821	     -2.34855275	      0.38742769	      5.20015110	    -19.32762069	      5.57273548	     11.48050896	     23.02318963	     33.82155916	      2.33491605	      3.47453915	    -11.07799096	     -5.36461744	      0.45108368	      8.70054739	     10.35092759	     -2.79479762	     11.37645174
      3.61000000	    -12.40375231	      2.75119948	     -3.17119259	     -1.63219302	     -0.02829819	     -0.31727608	     -2.24892105	     -0.15175829	      4.59449848	    -20.00625037	      4.98125752	     12.34674904	     23.61027324	     33.90280229	      2.91915166	      3.92739723	    -11.73301989	     -5.92652189	      0.05072708	      8.51650463	     10.57804846	     -3.20909311	     11.22049729
      3.61500000	    -12.46936837	      3.11444938	     -2.94804209	     -1.62587976	     -0.02827054	     -0.31815732	     -2.12354288	     -0.71302648	      3.94723505	    -20.73521702	      4.30537505	     13.25038786	     24.20315944	     33.97582079	      3.52682515	      4.38471448	    -12.40569376	     -6.42054740	     -0.29708408	      8.24299909	     10.80087705	     -3.64272637	     11.05743505
      3.62000000	    -12.52151493	      3.47687618	     -2.71096462	     -1.61958207	     -0.02816728	     -0.31904931	     -1.97966455	     -1.28643122	      3.24710225	    -21.50797576	      3.52746682	     14.18602709	     24.87668367	     34.03157321	      4.14902581	      4.89883708	    -13.09562877	     -6.86170673	     -0.64335678	      7.83625958	     11.00112944	     -4.08222167	     10.89669707
      3.62500000	    -12.54647855	      3.86090455	     -2.46595359	     -1.61317326	     -0.02795481	     -0.31990856	     -1.86607994	     -1.88458211	      2.58147820	    -22.24859198	      2.46652822	     14.97390865	     25.98587392	     34.01585785	      4.81217885	      5.53984903	    -13.76028625	     -7.18783156	     -1.08754958	      6.96320985	     11.18966071	     -4.55935687	     10.68783446
      3.63000000	    -12.58476340	      4.20963626	     -2.23740474	     -1.60678389	     -0.02775211	     -0.32073831	     -1.67549705	     -2.46971233	      1.80690375	    -23.10678844	      1.45787570	     15.97434237	     26.78870418	     34.02932371	      5.41762133	      6.03222295	    -14.45493164	     -7.38801347	     -1.28196312	      6.29440010	     11.38603977	     -4.99094439	     10.52519315
      3.63500000	    -12.59933935	      4.53625941	     -2.00734710	     -1.60036820	     -0.02749447	     -0.32154959	     -1.48494578	     -3.04333605	      1.01733919	    -24.00321020	      0.34406142	     16.98191828	     27.52646197	     33.99220893	      6.00529202	      6.54714780	    -15.11759031	     -7.55522017	     -1.49171136	      5.63400043	     11.55674774	     -5.40407511	     10.37056587
      3.64000000	    -12.60478398	      4.83600833	     -1.78235475	     -1.59391860	     -0.02721482	     -0.32233865	     -1.27142179	     -3.60227688	      0.21218078	    -24.94625519	     -0.90065621	     17.98982508	     28.26606104	     33.91661226	      6.56328250	      7.05639864	    -15.74309240	     -7.64537729	     -1.68593914	      4.97879700	     11.72104125	     -5.78915349	     10.22353429
      3.64500000	    -12.60719683	      5.09279312	     -1.58195566	     -1.58748335	     -0.02694697	     -0.32302837	     -1.01480559	     -4.12410829	     -0.57172172	    -25.98304129	     -2.10623474	     19.08387847	     28.50967680	     33.83525837	      7.03692577	      7.37683856	    -16.34516424	     -7.69717152	     -1.65951747	      4.82935896	     11.87961441	     -6.13059135	     10.08811765
      3.65000000	    -12.59937761	      5.29959665	     -1.38758346	     -1.58110303	     -0.02664836	     -0.32388044	     -0.73066452	     -4.62365898	     -1.37427825	    -27.02725838	     -3.62271197	     20.07439296	     29.26452771	     33.66482617	      7.51448095	      8.06130298	    -16.84499121	     -7.76812450	     -2.15517195	      4.19681275	     12.01169084	     -6.39295222	      9.97833714
      3.65500000	    -12.59534347	      5.49827461	     -1.20189001	     -1.57467188	     -0.02637221	     -0.32463750	     -0.41240061	     -5.12217710	     -2.16323945	    -28.12270152	     -5.20758447	     21.02323611	     29.80606429	     33.49109210	      7.94552947	      8.48369964	    -17.32386072	     -7.69089953	     -2.34429351	      3.81454492	     12.16156299	     -6.65629129	      9.85433297
      3.66000000	    -12.60200881	      5.67307346	     -1.02947765	     -1.56825821	     -0.02610457	     -0.32538448	     -0.04433466	     -5.60131501	     -2.90311848	    -29.26916929	     -6.89234103	     21.85186652	     30.16515716	     33.28520233	      8.34601056	      8.90439470	    -17.72096251	     -7.61909426	     -2.62368086	      3.54818250	     12.32221301	     -6.88939923	      9.73712003
